<svg xmlns="http://www.w3.org/2000/svg" version="1.1" xmlns:xlink="http://www.w3.org/1999/xlink" width="200" height="200"><svg xmlns="http://www.w3.org/2000/svg" version="1.1" xmlns:xlink="http://www.w3.org/1999/xlink" viewBox="0 0 200 200"><rect width="200" height="200" fill="url('#gradient')"></rect><defs><linearGradient id="SvgjsLinearGradient1001" gradientTransform="rotate(360 0.5 0.5)"><stop offset="0%" stop-color="#ffffff"></stop><stop offset="100%" stop-color="#fcfbf3"></stop></linearGradient></defs><g><g fill="#ff8787" transform="matrix(7.113282442748091,0,0,7.113282442748091,1.3721506442368536,150.57969388160996)" stroke="#1d7d80" stroke-width="2"><path d="M12.96-14.22L12.96 0L9.55 0L9.55-5.94L4.50-5.94L4.50 0L1.07 0L1.07-14.22L4.50-14.22L4.50-8.57L9.55-8.57L9.55-14.22L12.96-14.22ZM23.22-4.81L26.63-4.81Q26.56-3.33 25.83-2.19Q25.10-1.05 23.77-0.43Q22.45 0.20 20.75 0.20L20.75 0.20Q17.95 0.20 16.34-1.63Q14.73-3.46 14.73-6.79L14.73-6.79L14.73-7.49Q14.73-9.58 15.45-11.15Q16.18-12.71 17.55-13.57Q18.92-14.42 20.71-14.42L20.71-14.42Q23.30-14.42 24.87-13.06Q26.45-11.70 26.66-9.31L26.66-9.31L23.24-9.31Q23.20-10.61 22.59-11.17Q21.97-11.74 20.71-11.74L20.71-11.74Q19.43-11.74 18.84-10.78Q18.24-9.82 18.21-7.72L18.21-7.72L18.21-6.72Q18.21-4.44 18.78-3.47Q19.36-2.49 20.75-2.49L20.75-2.49Q21.93-2.49 22.56-3.05Q23.18-3.60 23.22-4.81L23.22-4.81Z"></path></g></g></svg><style>@media (prefers-color-scheme: light) { :root { filter: none; } }
@media (prefers-color-scheme: dark) { :root { filter: none; } }
</style></svg>